<svg width="152" height="40" viewBox="0 0 152 40" fill="none" xmlns="http://www.w3.org/2000/svg"> <path fill-rule="evenodd" clip-rule="evenodd" d="M47.5581 32.8783C39.0977 35.5747 30.5428 32.5515 28.784 29.5119C26.7701 26.0315 28.1838 22.8598 29.9656 20.3475C32.4956 16.7803 38.4962 14.0133 43.3735 14.4564C52.0157 15.2412 54.9072 18.3762 55.5771 22.7113C56.3323 27.5992 53.58 31.2885 53.58 31.2885C51.3897 35.2925 43.2521 40 43.2521 40L47.5581 32.8783ZM50.3025 23.7181C48.6148 23.7762 42.4873 23.485 42.796 16.1612C42.796 16.1612 42.4726 24.1352 34.7223 23.3051C34.7223 23.3051 42.2932 24.6729 42.0476 31.1154C42.0476 31.1154 43.274 24.3026 50.3025 23.7181ZM50.3025 23.7181C50.571 23.7089 50.7271 23.6909 50.7271 23.6909C50.5833 23.6975 50.4418 23.7066 50.3025 23.7181Z" fill="#FBF4E2"/> <path fill-rule="evenodd" clip-rule="evenodd" d="M77.8906 7.51544C77.8906 7.51544 43.544 -9.26588 14.9448 7.32391C14.9448 7.32391 5.17182 12.1944 0 18.1725C0 18.1725 8.57774 29.1375 18.8311 33.8609C18.8311 33.8609 28.202 39.0145 42.0047 39.8994L43.8923 35.8294C43.8923 35.8294 25.3347 36.9217 11.4899 23.1302C11.4899 23.1302 7.73055 19.6457 8.49736 18.0532C9.26417 16.4606 14.3526 13.2671 21.2539 10.0124C21.2539 10.0124 31.88 5.51998 40.0515 4.73254C44.0726 4.34502 51.8153 4.91556 57.1175 6.14502C63.8734 7.71142 65.9489 8.51547 69.1692 10.3371L66.2176 16.1976L77.8906 7.51544Z" fill="#FBF4E2"/> <path d="M140.953 33.4687C139.651 33.4687 138.656 33.1898 137.969 32.6319C137.292 32.074 136.828 31.3093 136.578 30.3379C136.328 29.3664 136.203 28.2651 136.203 27.0339C136.203 25.7161 136.344 24.6389 136.625 23.8021C136.906 22.9556 137.385 22.2631 138.062 21.7244C138.75 21.1858 139.693 20.7289 140.891 20.3538L144.359 19.2573V17.0354C144.359 15.8715 143.948 15.2896 143.125 15.2896C142.375 15.2896 142 15.7609 142 16.7035V18.0021H136.562C136.552 17.9251 136.547 17.8289 136.547 17.7135C136.547 17.5885 136.547 17.449 136.547 17.2951C136.547 15.1405 137.094 13.616 138.188 12.7215C139.292 11.8173 141.036 11.3652 143.422 11.3652C144.672 11.3652 145.792 11.572 146.781 11.9856C147.771 12.3896 148.552 12.9908 149.125 13.7891C149.708 14.5875 150 15.5734 150 16.7468V33.2379H144.438V30.6697C144.167 31.5739 143.719 32.2664 143.094 32.7473C142.469 33.2283 141.755 33.4687 140.953 33.4687ZM143.156 29.4578C143.615 29.4578 143.927 29.2798 144.094 28.9239C144.26 28.5681 144.344 28.1833 144.344 27.7697V21.7389C143.573 22.0274 142.974 22.3929 142.547 22.8354C142.12 23.2682 141.906 23.9079 141.906 24.7543V27.5389C141.906 28.8181 142.323 29.4578 143.156 29.4578Z" fill="#FBF4E2"/> <path d="M127.625 33.4688C125.958 33.4688 124.63 33.1802 123.641 32.6031C122.651 32.026 121.943 31.194 121.516 30.1071C121.089 29.0202 120.875 27.712 120.875 26.1827V17.4827C120.875 15.4724 121.5 13.9527 122.75 12.9235C124 11.8847 125.719 11.3653 127.906 11.3653C132.406 11.3653 134.656 13.4044 134.656 17.4827V19.0553C134.656 20.9598 134.635 22.2391 134.594 22.8931H126.469V27.0772C126.469 27.462 126.495 27.8419 126.547 28.217C126.599 28.5825 126.714 28.8855 126.891 29.126C127.078 29.3664 127.375 29.4867 127.781 29.4867C128.365 29.4867 128.729 29.2558 128.875 28.7941C129.021 28.3228 129.094 27.712 129.094 26.9618V24.8842H134.656V26.1105C134.656 27.7265 134.438 29.0827 134 30.1792C133.573 31.2661 132.844 32.0885 131.812 32.6464C130.792 33.1946 129.396 33.4688 127.625 33.4688ZM126.438 20.325H129.094V17.4105C129.094 16.6314 128.99 16.0736 128.781 15.7369C128.573 15.3906 128.26 15.2175 127.844 15.2175C127.396 15.2175 127.047 15.381 126.797 15.7081C126.557 16.0351 126.438 16.6026 126.438 17.4105V20.325ZM124.203 10.8314V7.61402L131.625 4.46875V9.47522L124.203 10.8314Z" fill="#FBF4E2"/> <path d="M105.094 33.2379V11.5961H110.688V14.3518C110.896 13.5246 111.281 12.8224 111.844 12.2453C112.417 11.6586 113.208 11.3652 114.219 11.3652C115.844 11.3652 117.021 11.8269 117.75 12.7503C118.49 13.6737 118.859 14.9385 118.859 16.5448V33.2379H113.344V17.0787C113.344 16.6554 113.25 16.2659 113.062 15.91C112.875 15.5445 112.552 15.3618 112.094 15.3618C111.667 15.3618 111.349 15.5012 111.141 15.7802C110.943 16.0495 110.818 16.3909 110.766 16.8045C110.714 17.2085 110.688 17.6125 110.688 18.0165V33.2379H105.094Z" fill="#FBF4E2"/> <path d="M97.2812 10.2687V5.96924H102.875V10.2687H97.2812ZM97.2812 33.2379V11.5961H102.875V33.2379H97.2812Z" fill="#FBF4E2"/> <path d="M88.625 33.4687C86.6354 33.4687 85.0312 32.8964 83.8125 31.7518C82.6042 30.6072 82 29.0057 82 26.9473V15.2319C82 12.7696 82.526 10.8843 83.5781 9.5762C84.6406 8.26808 86.3646 7.61401 88.75 7.61401C90.0521 7.61401 91.2083 7.83524 92.2188 8.2777C93.2396 8.72015 94.0417 9.38383 94.625 10.2687C95.2083 11.144 95.5 12.2502 95.5 13.5871V17.9732H90.0312V14.222C90.0312 13.4621 89.9271 12.9523 89.7188 12.6926C89.5104 12.4233 89.1875 12.2886 88.75 12.2886C88.2396 12.2886 87.8958 12.4618 87.7188 12.808C87.5417 13.1447 87.4531 13.5968 87.4531 14.1643V26.8752C87.4531 27.5774 87.5625 28.0727 87.7812 28.3613C88.0104 28.6498 88.3333 28.7941 88.75 28.7941C89.2188 28.7941 89.5469 28.6162 89.7344 28.2603C89.9323 27.9044 90.0312 27.4427 90.0312 26.8752V22.3016H95.5625V27.1061C95.5625 29.3376 94.9531 30.9583 93.7344 31.9682C92.5156 32.9686 90.8125 33.4687 88.625 33.4687Z" fill="#FBF4E2"/> </svg>